# xmcd
#
# Track frame offsets: 
#        150
#        15846
#        29569
#        42647
#        57351
#        68312
#        79794
#        93363
#        103888
#        118117
#        131448
#        142491
#        156022
#        167929
#        178281
#        189816
#        203677
#        216202
#        231340
#        242092
#        255486
#        266717
#        279824
#        290107
#
# Disc length: 4010 seconds
#
# Revision: 4
# Processed by: cddbd v1.5.2PL0 Copyright (c) Steve Scherf et al.
# Submitted via: ExactAudioCopyFreeDBPlugin 1.0
#
DISCID=630fa818
DTITLE=Various Artist - Sweet Inspiration:  The Songs of Dan Penn and S
DTITLE=pooner Oldham
DYEAR=2011
DGENRE=Soul
TTITLE0=Percy Sledge - Out of Left Field
TTITLE1=Dionne Warwick - I'm Your Puppet
TTITLE2=The Sweet Inspirations - Sweet Inspiration
TTITLE3=Charlie Rich - A Woman Left Lonely
TTITLE4=Etta James - I Worship the Ground You Walk On
TTITLE5=The Ovations - I'm Living Good
TTITLE6=Solomon Burke - Take Me (Just As I Am)
TTITLE7=Arthur Alexander - Cry Like a Baby
TTITLE8=Jeanne Newman - It Tears Me Up
TTITLE9=Art Freeman - Slippin' Around with You
TTITLE10=Tony Borders - I Met Her in Church
TTITLE11=Sandy Posey - Are You Never Coming Home
TTITLE12=James Carr - Let It Happen (alternate take)
TTITLE13=The Box Tops - Everything I Am
TTITLE14=Ted Taylor - Feed the Flame
TTITLE15=Tony Joe White - Watching the Trains Go By
TTITLE16=Arthur Conley - In the Same Old Way
TTITLE17=Ronnie Milsap - Denver
TTITLE18=Patti LaBelle and The Bluebelles - Dreamer
TTITLE19=Irma Thomas - Good Things Don't Come Easy
TTITLE20=Wallace Brothers - I Need Someone
TTITLE21=Barbara Lynn - He Ain't Gonna Do Right
TTITLE22=Tommy Roe - Wish You Didn't Have to Go
TTITLE23=Joe Simon - Let's Do it Over
EXTD=
EXTT0=
EXTT1=
EXTT2=
EXTT3=
EXTT4=
EXTT5=
EXTT6=
EXTT7=
EXTT8=
EXTT9=
EXTT10=
EXTT11=
EXTT12=
EXTT13=
EXTT14=
EXTT15=
EXTT16=
EXTT17=
EXTT18=
EXTT19=
EXTT20=
EXTT21=
EXTT22=
EXTT23=
PLAYORDER=
